<?xml version="1.0" encoding="UTF-8" standalone="no"?>
<svg
   xmlns:dc="http://purl.org/dc/elements/1.1/"
   xmlns:cc="http://creativecommons.org/ns#"
   xmlns:rdf="http://www.w3.org/1999/02/22-rdf-syntax-ns#"
   xmlns:svg="http://www.w3.org/2000/svg"
   xmlns="http://www.w3.org/2000/svg"
   version="1.1"
   id="svg2"
   viewBox="0 0 744.09448819 1052.3622047"
   height="297mm"
   width="210mm">
  <defs
     id="defs4" />
  <metadata
     id="metadata7">
    <rdf:RDF>
      <cc:Work
         rdf:about="">
        <dc:format>image/svg+xml</dc:format>
        <dc:type
           rdf:resource="http://purl.org/dc/dcmitype/StillImage" />
        <dc:title></dc:title>
      </cc:Work>
    </rdf:RDF>
  </metadata>
  <g
     id="layer1">
    <g
       transform="matrix(0.2550125,0,0,0.2550125,61.025462,68.889934)"
       id="ball1">
      <g
         id="g3438">
        <g
           id="g3440">
          <circle
             style="fill:#ff9100"
             cx="240"
             cy="240"
             r="240"
             id="circle3442" />
        </g>
        <g
           id="g3444">
          <path
             style="fill:#ff4f19"
             d="m 240,480 c 66.274,0 126.274,-26.862 169.706,-70.294 L 70.294,70.294 C 26.862,113.726 0,173.726 0,240 0,372.548 107.452,480 240,480 Z"
             id="path3446" />
        </g>
        <g
           id="g3448">
          <path
             style="fill:#74829c"
             d="m 328.203,248 151.594,0 c 0.088,-2.662 0.203,-5.317 0.203,-8 0,-2.683 -0.115,-5.338 -0.203,-8 l -151.594,0 C 330.442,166.377 360.065,107.596 405.961,66.724 402.096,63.021 398.13,59.425 394.025,55.985 345.596,99.739 314.429,162.267 312.203,232 l -63.984,0 0,-231.792 C 245.485,0.116 242.756,0 240,0 c -2.61,0 -5.192,0.114 -7.781,0.197 l 0,231.803 -56.422,0 C 173.513,160.446 140.762,96.475 90.15,52.595 c -4.219,3.378 -8.343,6.868 -12.323,10.519 48.277,40.98 79.664,101.29 81.971,168.887 l -159.595,0 C 0.115,234.662 0,237.317 0,240 c 0,2.683 0.115,5.338 0.203,8 l 159.595,0 c -2.307,67.597 -33.693,127.906 -81.971,168.887 3.979,3.65 8.104,7.14 12.323,10.519 50.613,-43.88 83.363,-107.852 85.647,-179.405 l 56.422,0 0,231.803 c 2.589,0.082 5.171,0.196 7.781,0.196 2.756,0 5.485,-0.116 8.219,-0.208 l 0,-231.792 63.984,0 c 2.226,69.733 33.393,132.261 81.822,176.015 4.104,-3.44 8.07,-7.036 11.936,-10.739 C 360.064,372.404 330.442,313.622 328.203,248 Z"
             id="path3450" />
        </g>
        <g
           id="g3452">
          <g
             id="g3454">
            <path
               style="fill:#5c546a"
               d="m 394.025,424.015 0.007,-0.006 c 4.099,-3.435 8.059,-7.025 11.918,-10.723 0.003,-0.003 0.007,-0.007 0.011,-0.01 -16.007,-14.254 -29.977,-30.727 -41.553,-48.868 l -35.923,-35.923 c 14.136,36.845 36.753,69.522 65.54,95.53 z"
               id="path3456" />
          </g>
          <g
             id="g3458">
            <path
               style="fill:#5c546a"
               d="M 248.219,248.219 232,232 l -56.203,0 c -0.756,-23.692 -4.917,-46.523 -11.896,-68.099 L 134.352,134.352 C 149.513,163.827 158.6,196.915 159.797,232 L 0.203,232 C 0.115,234.662 0,237.317 0,240 c 0,2.683 0.115,5.338 0.203,8 l 159.595,0 c -2.307,67.597 -33.693,127.906 -81.971,168.887 3.977,3.648 8.099,7.136 12.316,10.513 0,0 0.005,0.003 0.007,0.005 50.613,-43.88 83.363,-107.851 85.647,-179.405 l 56.422,0 0,231.803 c 2.589,0.083 5.171,0.197 7.781,0.197 2.756,0 5.485,-0.116 8.219,-0.208 l 0,-231.573 z"
               id="path3460" />
          </g>
        </g>
      </g>
      <g
         id="g3462" />
      <g
         id="g3464" />
      <g
         id="g3466" />
      <g
         id="g3468" />
      <g
         id="g3470" />
      <g
         id="g3472" />
      <g
         id="g3474" />
      <g
         id="g3476" />
      <g
         id="g3478" />
      <g
         id="g3480" />
      <g
         id="g3482" />
      <g
         id="g3484" />
      <g
         id="g3486" />
      <g
         id="g3488" />
      <g
         id="g3490" />
    </g>
    <g
       id="ball2"
       transform="matrix(0.12032549,0,0,0.12032549,558.02051,192.12854)">
      <g
         id="g3529">
        <g
           id="g3531">
          <circle
             id="circle3533"
             r="240"
             cy="240"
             cx="240"
             style="fill:#ff9100" />
        </g>
        <g
           id="g3535">
          <path
             id="path3537"
             d="m 240,480 c 66.274,0 126.274,-26.862 169.706,-70.294 L 70.294,70.294 C 26.862,113.726 0,173.726 0,240 0,372.548 107.452,480 240,480 Z"
             style="fill:#ff4f19" />
        </g>
        <g
           id="g3539">
          <path
             id="path3541"
             d="m 328.203,248 151.594,0 c 0.088,-2.662 0.203,-5.317 0.203,-8 0,-2.683 -0.115,-5.338 -0.203,-8 l -151.594,0 C 330.442,166.377 360.065,107.596 405.961,66.724 402.096,63.021 398.13,59.425 394.025,55.985 345.596,99.739 314.429,162.267 312.203,232 l -63.984,0 0,-231.792 C 245.485,0.116 242.756,0 240,0 c -2.61,0 -5.192,0.114 -7.781,0.197 l 0,231.803 -56.422,0 C 173.513,160.446 140.762,96.475 90.15,52.595 c -4.219,3.378 -8.343,6.868 -12.323,10.519 48.277,40.98 79.664,101.29 81.971,168.887 l -159.595,0 C 0.115,234.662 0,237.317 0,240 c 0,2.683 0.115,5.338 0.203,8 l 159.595,0 c -2.307,67.597 -33.693,127.906 -81.971,168.887 3.979,3.65 8.104,7.14 12.323,10.519 50.613,-43.88 83.363,-107.852 85.647,-179.405 l 56.422,0 0,231.803 c 2.589,0.082 5.171,0.196 7.781,0.196 2.756,0 5.485,-0.116 8.219,-0.208 l 0,-231.792 63.984,0 c 2.226,69.733 33.393,132.261 81.822,176.015 4.104,-3.44 8.07,-7.036 11.936,-10.739 C 360.064,372.404 330.442,313.622 328.203,248 Z"
             style="fill:#74829c" />
        </g>
        <g
           id="g3543">
          <g
             id="g3545">
            <path
               id="path3547"
               d="m 394.025,424.015 0.007,-0.006 c 4.099,-3.435 8.059,-7.025 11.918,-10.723 0.003,-0.003 0.007,-0.007 0.011,-0.01 -16.007,-14.254 -29.977,-30.727 -41.553,-48.868 l -35.923,-35.923 c 14.136,36.845 36.753,69.522 65.54,95.53 z"
               style="fill:#5c546a" />
          </g>
          <g
             id="g3549">
            <path
               id="path3551"
               d="M 248.219,248.219 232,232 l -56.203,0 c -0.756,-23.692 -4.917,-46.523 -11.896,-68.099 L 134.352,134.352 C 149.513,163.827 158.6,196.915 159.797,232 L 0.203,232 C 0.115,234.662 0,237.317 0,240 c 0,2.683 0.115,5.338 0.203,8 l 159.595,0 c -2.307,67.597 -33.693,127.906 -81.971,168.887 3.977,3.648 8.099,7.136 12.316,10.513 0,0 0.005,0.003 0.007,0.005 50.613,-43.88 83.363,-107.851 85.647,-179.405 l 56.422,0 0,231.803 c 2.589,0.083 5.171,0.197 7.781,0.197 2.756,0 5.485,-0.116 8.219,-0.208 l 0,-231.573 z"
               style="fill:#5c546a" />
          </g>
        </g>
      </g>
      <g
         id="g3553" />
      <g
         id="g3555" />
      <g
         id="g3557" />
      <g
         id="g3559" />
      <g
         id="g3561" />
      <g
         id="g3563" />
      <g
         id="g3565" />
      <g
         id="g3567" />
      <g
         id="g3569" />
      <g
         id="g3571" />
      <g
         id="g3573" />
      <g
         id="g3575" />
      <g
         id="g3577" />
      <g
         id="g3579" />
      <g
         id="g3581" />
    </g>
    <path
       id="move1"
       d="M 113.13709,325.05237 C 224.25387,603.85447 452.54834,254.3417 565.68543,569.50929"
       style="fill:none;stroke:#000000;stroke-width:1px;stroke-linecap:butt;stroke-linejoin:miter;stroke-opacity:1" />
  </g>
</svg>
