<?xml version="1.0" encoding="UTF-8" standalone="no"?>
<svg
   xmlns:dc="http://purl.org/dc/elements/1.1/"
   xmlns:cc="http://creativecommons.org/ns#"
   xmlns:rdf="http://www.w3.org/1999/02/22-rdf-syntax-ns#"
   xmlns:svg="http://www.w3.org/2000/svg"
   xmlns="http://www.w3.org/2000/svg"
   xmlns:sodipodi="http://sodipodi.sourceforge.net/DTD/sodipodi-0.dtd"
   xmlns:inkscape="http://www.inkscape.org/namespaces/inkscape"
   version="1.1"
   viewBox="0 0 619.25104 468.965"
   height="468.965"
   width="619.25104"
   id="svg3465"
   inkscape:version="0.91 r13725"
   sodipodi:docname="testspielzug.svg">
  <metadata
     id="metadata3471">
    <rdf:RDF>
      <cc:Work
         rdf:about="">
        <dc:format>image/svg+xml</dc:format>
        <dc:type
           rdf:resource="http://purl.org/dc/dcmitype/StillImage" />
        <dc:title />
      </cc:Work>
    </rdf:RDF>
  </metadata>
  <defs
     id="defs3469">
    <marker
       inkscape:isstock="true"
       style="overflow:visible"
       id="marker8456"
       refX="0.0"
       refY="0.0"
       orient="auto"
       inkscape:stockid="StopM">
      <path
         transform="scale(0.4)"
         style="fill:none;fill-opacity:0.75;fill-rule:evenodd;stroke:#000000;stroke-width:1pt;stroke-opacity:1"
         d="M 0.0,5.65 L 0.0,-5.65"
         id="path8458" />
    </marker>
    <marker
       inkscape:isstock="true"
       style="overflow:visible"
       id="marker7620"
       refX="0.0"
       refY="0.0"
       orient="auto"
       inkscape:stockid="StopM">
      <path
         transform="scale(0.4)"
         style="fill:none;fill-opacity:0.75;fill-rule:evenodd;stroke:#000000;stroke-width:1pt;stroke-opacity:1"
         d="M 0.0,5.65 L 0.0,-5.65"
         id="path7622" />
    </marker>
    <marker
       inkscape:stockid="StopM"
       orient="auto"
       refY="0.0"
       refX="0.0"
       id="StopM"
       style="overflow:visible"
       inkscape:isstock="true"
       inkscape:collect="always">
      <path
         id="path5750"
         d="M 0.0,5.65 L 0.0,-5.65"
         style="fill:none;fill-opacity:0.75;fill-rule:evenodd;stroke:#000000;stroke-width:1pt;stroke-opacity:1"
         transform="scale(0.4)" />
    </marker>
    <marker
       inkscape:stockid="StopL"
       orient="auto"
       refY="0.0"
       refX="0.0"
       id="StopL"
       style="overflow:visible"
       inkscape:isstock="true">
      <path
         id="path5747"
         d="M 0.0,5.65 L 0.0,-5.65"
         style="fill:none;fill-opacity:0.75;fill-rule:evenodd;stroke:#000000;stroke-width:1pt;stroke-opacity:1"
         transform="scale(0.8)" />
    </marker>
    <marker
       inkscape:stockid="StopM"
       orient="auto"
       refY="0"
       refX="0"
       id="marker5384"
       style="overflow:visible"
       inkscape:isstock="true">
      <path
         inkscape:connector-curvature="0"
         id="path5386"
         d="M 0,5.65 0,-5.65"
         style="fill:none;fill-opacity:0.75;fill-rule:evenodd;stroke:#000000;stroke-width:1pt;stroke-opacity:1"
         transform="scale(0.4,0.4)" />
    </marker>
    <marker
       inkscape:stockid="Arrow2Mend"
       orient="auto"
       refY="0"
       refX="0"
       id="marker33250"
       style="overflow:visible"
       inkscape:isstock="true">
      <path
         inkscape:connector-curvature="0"
         id="path33252"
         style="fill:#000000;fill-opacity:1;fill-rule:evenodd;stroke:#000000;stroke-width:0.625;stroke-linejoin:round;stroke-opacity:1"
         d="M 8.7185878,4.0337352 -2.2072895,0.01601326 8.7185884,-4.0017078 c -1.7454984,2.3720609 -1.7354408,5.6174519 -6e-7,8.035443 z"
         transform="scale(-0.6,-0.6)" />
    </marker>
    <marker
       inkscape:isstock="true"
       style="overflow:visible"
       id="marker31575"
       refX="0"
       refY="0"
       orient="auto"
       inkscape:stockid="StopL">
      <path
         transform="scale(0.8,0.8)"
         style="fill:none;fill-opacity:0.75;fill-rule:evenodd;stroke:#000000;stroke-width:1pt;stroke-opacity:1"
         d="M 0,5.65 0,-5.65"
         id="path31577"
         inkscape:connector-curvature="0" />
    </marker>
    <marker
       inkscape:stockid="Arrow2Mend"
       orient="auto"
       refY="0"
       refX="0"
       id="marker27744"
       style="overflow:visible"
       inkscape:isstock="true">
      <path
         id="path27746"
         style="fill:#000000;fill-opacity:1;fill-rule:evenodd;stroke:#000000;stroke-width:0.625;stroke-linejoin:round;stroke-opacity:1"
         d="M 8.7185878,4.0337352 -2.2072895,0.01601326 8.7185884,-4.0017078 c -1.7454984,2.3720609 -1.7354408,5.6174519 -6e-7,8.035443 z"
         transform="scale(-0.6,-0.6)"
         inkscape:connector-curvature="0" />
    </marker>
    <marker
       inkscape:stockid="Arrow2Mend"
       orient="auto"
       refY="0"
       refX="0"
       id="Arrow2Mend"
       style="overflow:visible"
       inkscape:isstock="true">
      <path
         id="path7263"
         style="fill-rule:evenodd;stroke-width:0.625;stroke-linejoin:round"
         d="M 8.7185878,4.0337352 -2.2072895,0.01601326 8.7185884,-4.0017078 c -1.7454984,2.3720609 -1.7354408,5.6174519 -6e-7,8.035443 z"
         transform="scale(-0.6,-0.6)"
         inkscape:connector-curvature="0" />
    </marker>
    <marker
       inkscape:isstock="true"
       style="overflow:visible"
       id="marker23770"
       refX="0"
       refY="0"
       orient="auto"
       inkscape:stockid="Arrow2Mend"
       inkscape:collect="always">
      <path
         transform="scale(-0.6,-0.6)"
         d="M 8.7185878,4.0337352 -2.2072895,0.01601326 8.7185884,-4.0017078 c -1.7454984,2.3720609 -1.7354408,5.6174519 -6e-7,8.035443 z"
         style="fill:#000000;fill-opacity:1;fill-rule:evenodd;stroke:#000000;stroke-width:0.625;stroke-linejoin:round;stroke-opacity:1"
         id="path23772"
         inkscape:connector-curvature="0" />
    </marker>
    <marker
       inkscape:stockid="Arrow2Mend"
       orient="auto"
       refY="0"
       refX="0"
       id="marker23598"
       style="overflow:visible"
       inkscape:isstock="true"
       inkscape:collect="always">
      <path
         id="path23600"
         style="fill:#000000;fill-opacity:1;fill-rule:evenodd;stroke:#000000;stroke-width:0.625;stroke-linejoin:round;stroke-opacity:1"
         d="M 8.7185878,4.0337352 -2.2072895,0.01601326 8.7185884,-4.0017078 c -1.7454984,2.3720609 -1.7354408,5.6174519 -6e-7,8.035443 z"
         transform="scale(-0.6,-0.6)"
         inkscape:connector-curvature="0" />
    </marker>
    <marker
       inkscape:isstock="true"
       style="overflow:visible"
       id="marker23432"
       refX="0"
       refY="0"
       orient="auto"
       inkscape:stockid="Arrow2Mend">
      <path
         transform="scale(-0.6,-0.6)"
         d="M 8.7185878,4.0337352 -2.2072895,0.01601326 8.7185884,-4.0017078 c -1.7454984,2.3720609 -1.7354408,5.6174519 -6e-7,8.035443 z"
         style="fill:#000000;fill-opacity:1;fill-rule:evenodd;stroke:#000000;stroke-width:0.625;stroke-linejoin:round;stroke-opacity:1"
         id="path23434"
         inkscape:connector-curvature="0" />
    </marker>
    <marker
       inkscape:stockid="Arrow2Mend"
       orient="auto"
       refY="0"
       refX="0"
       id="marker23272"
       style="overflow:visible"
       inkscape:isstock="true"
       inkscape:collect="always">
      <path
         id="path23274"
         style="fill:#000000;fill-opacity:1;fill-rule:evenodd;stroke:#000000;stroke-width:0.625;stroke-linejoin:round;stroke-opacity:1"
         d="M 8.7185878,4.0337352 -2.2072895,0.01601326 8.7185884,-4.0017078 c -1.7454984,2.3720609 -1.7354408,5.6174519 -6e-7,8.035443 z"
         transform="scale(-0.6,-0.6)"
         inkscape:connector-curvature="0" />
    </marker>
    <marker
       inkscape:isstock="true"
       style="overflow:visible"
       id="marker23118"
       refX="0"
       refY="0"
       orient="auto"
       inkscape:stockid="Arrow2Mend"
       inkscape:collect="always">
      <path
         transform="scale(-0.6,-0.6)"
         d="M 8.7185878,4.0337352 -2.2072895,0.01601326 8.7185884,-4.0017078 c -1.7454984,2.3720609 -1.7354408,5.6174519 -6e-7,8.035443 z"
         style="fill:#000000;fill-opacity:1;fill-rule:evenodd;stroke:#000000;stroke-width:0.625;stroke-linejoin:round;stroke-opacity:1"
         id="path23120"
         inkscape:connector-curvature="0" />
    </marker>
    <marker
       inkscape:stockid="Arrow2Mend"
       orient="auto"
       refY="0"
       refX="0"
       id="marker23050"
       style="overflow:visible"
       inkscape:isstock="true"
       inkscape:collect="always">
      <path
         id="path23052"
         style="fill:#000000;fill-opacity:1;fill-rule:evenodd;stroke:#000000;stroke-width:0.625;stroke-linejoin:round;stroke-opacity:1"
         d="M 8.7185878,4.0337352 -2.2072895,0.01601326 8.7185884,-4.0017078 c -1.7454984,2.3720609 -1.7354408,5.6174519 -6e-7,8.035443 z"
         transform="scale(-0.6,-0.6)"
         inkscape:connector-curvature="0" />
    </marker>
    <marker
       inkscape:isstock="true"
       style="overflow:visible"
       id="marker22982"
       refX="0"
       refY="0"
       orient="auto"
       inkscape:stockid="Arrow2Mend"
       inkscape:collect="always">
      <path
         transform="scale(-0.6,-0.6)"
         d="M 8.7185878,4.0337352 -2.2072895,0.01601326 8.7185884,-4.0017078 c -1.7454984,2.3720609 -1.7354408,5.6174519 -6e-7,8.035443 z"
         style="fill:#000000;fill-opacity:1;fill-rule:evenodd;stroke:#000000;stroke-width:0.625;stroke-linejoin:round;stroke-opacity:1"
         id="path22984"
         inkscape:connector-curvature="0" />
    </marker>
    <marker
       inkscape:stockid="Arrow2Send"
       orient="auto"
       refY="0"
       refX="0"
       id="Arrow2Send"
       style="overflow:visible"
       inkscape:isstock="true">
      <path
         id="path7269"
         style="fill:#ff0000;fill-opacity:1;fill-rule:evenodd;stroke:#ff0000;stroke-width:0.625;stroke-linejoin:round;stroke-opacity:1"
         d="M 8.7185878,4.0337352 -2.2072895,0.01601326 8.7185884,-4.0017078 c -1.7454984,2.3720609 -1.7354408,5.6174519 -6e-7,8.035443 z"
         transform="matrix(-0.3,0,0,-0.3,0.69,0)"
         inkscape:connector-curvature="0" />
    </marker>
    <marker
       inkscape:stockid="Arrow2Lend"
       orient="auto"
       refY="0"
       refX="0"
       id="marker21498"
       style="overflow:visible"
       inkscape:isstock="true">
      <path
         id="path21500"
         style="fill:#ff0000;fill-opacity:1;fill-rule:evenodd;stroke:#ff0000;stroke-width:0.625;stroke-linejoin:round;stroke-opacity:1"
         d="M 8.7185878,4.0337352 -2.2072895,0.01601326 8.7185884,-4.0017078 c -1.7454984,2.3720609 -1.7354408,5.6174519 -6e-7,8.035443 z"
         transform="matrix(-1.1,0,0,-1.1,-1.1,0)"
         inkscape:connector-curvature="0" />
    </marker>
    <marker
       inkscape:stockid="Arrow2Lend"
       orient="auto"
       refY="0"
       refX="0"
       id="marker20856"
       style="overflow:visible"
       inkscape:isstock="true">
      <path
         id="path20858"
         style="fill:#ff0000;fill-opacity:1;fill-rule:evenodd;stroke:#ff0000;stroke-width:0.625;stroke-linejoin:round;stroke-opacity:1"
         d="M 8.7185878,4.0337352 -2.2072895,0.01601326 8.7185884,-4.0017078 c -1.7454984,2.3720609 -1.7354408,5.6174519 -6e-7,8.035443 z"
         transform="matrix(-1.1,0,0,-1.1,-1.1,0)"
         inkscape:connector-curvature="0" />
    </marker>
    <marker
       inkscape:isstock="true"
       style="overflow:visible"
       id="marker16522"
       refX="0"
       refY="0"
       orient="auto"
       inkscape:stockid="StopL">
      <path
         transform="scale(0.8,0.8)"
         style="fill:none;fill-opacity:0.75;fill-rule:evenodd;stroke:#000000;stroke-width:1pt;stroke-opacity:0.37179488"
         d="M 0,5.65 0,-5.65"
         id="path16524"
         inkscape:connector-curvature="0" />
    </marker>
    <marker
       style="overflow:visible"
       id="DistanceEnd"
       refX="0"
       refY="0"
       orient="auto"
       inkscape:stockid="DistanceEnd"
       inkscape:isstock="true">
      <g
         id="g2301"
         style="fill:#ff0000;fill-opacity:1;stroke:#ff0000;stroke-opacity:1">
        <path
           style="fill:#ff0000;fill-opacity:1;stroke:#ff0000;stroke-width:1.14999998;stroke-linecap:square;stroke-opacity:1"
           d="M 0,0 -2,0"
           id="path2316"
           inkscape:connector-curvature="0" />
        <path
           style="fill:#ff0000;fill-opacity:1;fill-rule:evenodd;stroke:#ff0000;stroke-opacity:1"
           d="M 0,0 -13,4 -9,0 -13,-4 0,0 Z"
           id="path2312"
           inkscape:connector-curvature="0" />
        <path
           style="fill:#ff0000;fill-opacity:1;stroke:#ff0000;stroke-width:1;stroke-linecap:square;stroke-opacity:1"
           d="M 0,-4 0,40"
           id="path2314"
           inkscape:connector-curvature="0" />
      </g>
    </marker>
    <marker
       style="overflow:visible"
       id="DistanceStart"
       refX="0"
       refY="0"
       orient="auto"
       inkscape:stockid="DistanceStart"
       inkscape:isstock="true">
      <g
         id="g2300"
         style="fill:#ff0000;fill-opacity:1;stroke:#ff0000;stroke-opacity:1">
        <path
           style="fill:#ff0000;fill-opacity:1;stroke:#ff0000;stroke-width:1.14999998;stroke-linecap:square;stroke-opacity:1"
           d="M 0,0 2,0"
           id="path2306"
           inkscape:connector-curvature="0" />
        <path
           style="fill:#ff0000;fill-opacity:1;fill-rule:evenodd;stroke:#ff0000;stroke-opacity:1"
           d="M 0,0 13,4 9,0 13,-4 0,0 Z"
           id="path2302"
           inkscape:connector-curvature="0" />
        <path
           style="fill:#ff0000;fill-opacity:1;stroke:#ff0000;stroke-width:1;stroke-linecap:square;stroke-opacity:1"
           d="M 0,-4 0,40"
           id="path2304"
           inkscape:connector-curvature="0" />
      </g>
    </marker>
    <marker
       inkscape:stockid="Arrow2Lend"
       orient="auto"
       refY="0"
       refX="0"
       id="marker14566"
       style="overflow:visible"
       inkscape:isstock="true">
      <path
         id="path14568"
         style="fill:#ff0000;fill-opacity:1;fill-rule:evenodd;stroke:#ff0000;stroke-width:0.625;stroke-linejoin:round;stroke-opacity:1"
         d="M 8.7185878,4.0337352 -2.2072895,0.01601326 8.7185884,-4.0017078 c -1.7454984,2.3720609 -1.7354408,5.6174519 -6e-7,8.035443 z"
         transform="matrix(-1.1,0,0,-1.1,-1.1,0)"
         inkscape:connector-curvature="0" />
    </marker>
    <marker
       inkscape:stockid="Arrow2Lend"
       orient="auto"
       refY="0"
       refX="0"
       id="marker13396"
       style="overflow:visible"
       inkscape:isstock="true">
      <path
         id="path13398"
         style="fill:#ff0000;fill-opacity:1;fill-rule:evenodd;stroke:#ff0000;stroke-width:0.625;stroke-linejoin:round;stroke-opacity:1"
         d="M 8.7185878,4.0337352 -2.2072895,0.01601326 8.7185884,-4.0017078 c -1.7454984,2.3720609 -1.7354408,5.6174519 -6e-7,8.035443 z"
         transform="matrix(-1.1,0,0,-1.1,-1.1,0)"
         inkscape:connector-curvature="0" />
    </marker>
    <marker
       inkscape:isstock="true"
       style="overflow:visible"
       id="marker11896"
       refX="0"
       refY="0"
       orient="auto"
       inkscape:stockid="Arrow2Lend">
      <path
         transform="matrix(-1.1,0,0,-1.1,-1.1,0)"
         d="M 8.7185878,4.0337352 -2.2072895,0.01601326 8.7185884,-4.0017078 c -1.7454984,2.3720609 -1.7354408,5.6174519 -6e-7,8.035443 z"
         style="fill:#ff0000;fill-opacity:1;fill-rule:evenodd;stroke:#ff0000;stroke-width:0.625;stroke-linejoin:round;stroke-opacity:1"
         id="path11898"
         inkscape:connector-curvature="0" />
    </marker>
    <marker
       inkscape:isstock="true"
       style="overflow:visible"
       id="marker11242"
       refX="0"
       refY="0"
       orient="auto"
       inkscape:stockid="Arrow2Lend">
      <path
         transform="matrix(-1.1,0,0,-1.1,-1.1,0)"
         d="M 8.7185878,4.0337352 -2.2072895,0.01601326 8.7185884,-4.0017078 c -1.7454984,2.3720609 -1.7354408,5.6174519 -6e-7,8.035443 z"
         style="fill:#ff0000;fill-opacity:1;fill-rule:evenodd;stroke:#ff0000;stroke-width:0.625;stroke-linejoin:round;stroke-opacity:1"
         id="path11244"
         inkscape:connector-curvature="0" />
    </marker>
    <marker
       inkscape:isstock="true"
       style="overflow:visible"
       id="marker10468"
       refX="0"
       refY="0"
       orient="auto"
       inkscape:stockid="Arrow2Lend">
      <path
         transform="matrix(-1.1,0,0,-1.1,-1.1,0)"
         d="M 8.7185878,4.0337352 -2.2072895,0.01601326 8.7185884,-4.0017078 c -1.7454984,2.3720609 -1.7354408,5.6174519 -6e-7,8.035443 z"
         style="fill:#ff0000;fill-opacity:1;fill-rule:evenodd;stroke:#ff0000;stroke-width:0.625;stroke-linejoin:round;stroke-opacity:1"
         id="path10470"
         inkscape:connector-curvature="0" />
    </marker>
    <marker
       inkscape:stockid="Arrow1Lend"
       orient="auto"
       refY="0"
       refX="0"
       id="marker7512"
       style="overflow:visible"
       inkscape:isstock="true">
      <path
         id="path7514"
         d="M 0,0 5,-5 -12.5,0 5,5 0,0 Z"
         style="fill:#ff0000;fill-opacity:1;fill-rule:evenodd;stroke:#ff0000;stroke-width:1pt;stroke-opacity:1"
         transform="matrix(-0.8,0,0,-0.8,-10,0)"
         inkscape:connector-curvature="0" />
    </marker>
    <marker
       inkscape:stockid="Arrow1Lend"
       orient="auto"
       refY="0"
       refX="0"
       id="Arrow1Lend"
       style="overflow:visible"
       inkscape:isstock="true">
      <path
         id="path7239"
         d="M 0,0 5,-5 -12.5,0 5,5 0,0 Z"
         style="fill:#ff0000;fill-opacity:1;fill-rule:evenodd;stroke:#ff0000;stroke-width:1pt;stroke-opacity:1"
         transform="matrix(-0.8,0,0,-0.8,-10,0)"
         inkscape:connector-curvature="0" />
    </marker>
  </defs>
  <sodipodi:namedview
     pagecolor="#ffffff"
     bordercolor="#666666"
     borderopacity="1"
     objecttolerance="10"
     gridtolerance="10"
     guidetolerance="10"
     inkscape:pageopacity="0"
     inkscape:pageshadow="2"
     inkscape:window-width="1280"
     inkscape:window-height="752"
     id="namedview3467"
     showgrid="false"
     inkscape:zoom="2.1599999"
     inkscape:cx="370.44442"
     inkscape:cy="367.3333"
     inkscape:window-x="0"
     inkscape:window-y="0"
     inkscape:window-maximized="1"
     inkscape:current-layer="background"
     fit-margin-top="50"
     fit-margin-left="20"
     fit-margin-right="20"
     fit-margin-bottom="50" />
  <g
     id="background"
     inkscape:label="#g33185">
    <path
       sodipodi:nodetypes="cczccc"
       inkscape:connector-curvature="0"
       id="path6368"
       d="m 233.0773,51.00828 2.9e-4,110.12216 c 0,0 36.03212,115.30437 170.7969,115.30437 134.76479,0 170.79691,-115.30437 170.79691,-115.30437 l 5.5e-4,-110.8266 z"
       style="fill:#ace298;fill-opacity:1;stroke:#000000;stroke-width:1px;stroke-linecap:butt;stroke-linejoin:miter;stroke-opacity:1" />
    <path
       inkscape:connector-curvature="0"
       id="path7170"
       d="m 341.90392,50.57643 0,148.55695 123.50956,0 0,-148.1251 z"
       style="fill:#fee49b;fill-opacity:1;stroke:#000000;stroke-width:1px;stroke-linecap:butt;stroke-linejoin:miter;stroke-opacity:1" />
    <path
       inkscape:connector-curvature="0"
       id="path7172"
       d="m 357.20712,198.90748 0,-147.79675 92.52566,0 0,147.79675"
       style="fill:none;stroke:#000000;stroke-width:1px;stroke-linecap:butt;stroke-linejoin:miter;stroke-opacity:1" />
    <path
       d="m 450.03807,199.51819 a 46.110153,46.110146 0 0 1 -23.05508,39.93256 46.110153,46.110146 0 0 1 -46.11015,0 46.110153,46.110146 0 0 1 -23.05508,-39.93256"
       sodipodi:open="true"
       sodipodi:end="3.1415927"
       sodipodi:start="0"
       sodipodi:ry="46.110146"
       sodipodi:rx="46.110153"
       sodipodi:cy="199.51819"
       sodipodi:cx="403.92792"
       sodipodi:type="arc"
       style="fill:#fee49b;fill-opacity:1;stroke:#000000;stroke-width:1;stroke-miterlimit:4;stroke-dasharray:none;stroke-opacity:1"
       id="circle7178" />
    <path
       sodipodi:open="true"
       d="m 434.00643,92.793091 a 30.383839,30.383835 0 0 1 -15.19192,26.313169 30.383839,30.383835 0 0 1 -30.38384,0 30.383839,30.383835 0 0 1 -15.19192,-26.313171"
       sodipodi:end="3.1415927"
       sodipodi:start="0"
       sodipodi:ry="30.383835"
       sodipodi:rx="30.383839"
       sodipodi:cy="92.793091"
       sodipodi:cx="403.62259"
       sodipodi:type="arc"
       id="path7180"
       style="fill:#fd8276;fill-opacity:1;stroke:#000000;stroke-width:1;stroke-miterlimit:4;stroke-dasharray:8, 8;stroke-dashoffset:0;stroke-opacity:1" />
    <path
       sodipodi:nodetypes="ccccc"
       inkscape:connector-curvature="0"
       id="path7182"
       d="m 434.46452,92.94577 0,-10.38242 -61.37841,0 0,10.68779 z"
       style="fill:#fd8276;fill-opacity:1;stroke:none;stroke-width:1px;stroke-linecap:butt;stroke-linejoin:miter;stroke-opacity:1" />
    <path
       inkscape:connector-curvature="0"
       id="path7184"
       d="m 380.41488,82.41067 46.41551,0"
       style="fill:none;stroke:#000000;stroke-width:1px;stroke-linecap:butt;stroke-linejoin:miter;stroke-opacity:1" />
    <path
       inkscape:connector-curvature="0"
       id="path7186"
       d="m 208.49426,50.5 390.25675,0 0,367.65968 -390.86749,0 z"
       style="fill:none;stroke:#000000;stroke-width:1px;stroke-linecap:butt;stroke-linejoin:miter;stroke-opacity:1" />
    <path
       d="m 357.51244,418.46499 a 46.415512,46.415508 0 0 1 46.41551,-46.4155 46.415512,46.415508 0 0 1 46.41551,46.41551 l -46.41551,0 z"
       sodipodi:end="0"
       sodipodi:start="3.1415927"
       sodipodi:ry="46.415508"
       sodipodi:rx="46.415512"
       sodipodi:cy="418.465"
       sodipodi:cx="403.92795"
       sodipodi:type="arc"
       id="path7188"
       style="fill:none;stroke:#000000;stroke-width:1;stroke-miterlimit:4;stroke-dasharray:none;stroke-dashoffset:0;stroke-opacity:1" />
    <path
       style="fill:none;stroke:#000000;stroke-width:1;stroke-miterlimit:4;stroke-dasharray:none;stroke-dashoffset:0;stroke-opacity:1"
       id="path7190"
       sodipodi:type="arc"
       sodipodi:cx="403.92795"
       sodipodi:cy="418.465"
       sodipodi:rx="16.795086"
       sodipodi:ry="16.795082"
       sodipodi:start="3.1415927"
       sodipodi:end="0"
       d="m 387.13286,418.465 a 16.795086,16.795082 0 0 1 16.79509,-16.79509 16.795086,16.795082 0 0 1 16.79508,16.79509 l -16.79508,0 z" />
    <ellipse
       style="fill:#fe0000;fill-opacity:1;stroke:none;stroke-width:1;stroke-miterlimit:4;stroke-dasharray:none;stroke-dashoffset:0;stroke-opacity:1"
       id="path9474"
       cx="81.001945"
       cy="61.171818"
       rx="11.744839"
       ry="8.1529083" />
    <ellipse
       ry="60.004257"
       rx="60.004269"
       cy="122.4135"
       cx="81.004265"
       id="path7192"
       style="fill:#ffffff;stroke:#000000;stroke-width:2;stroke-miterlimit:4;stroke-dasharray:none;stroke-dashoffset:0;stroke-opacity:1;fill-opacity:1" />
    <path
       sodipodi:nodetypes="cc"
       inkscape:connector-curvature="0"
       id="path9464"
       d="M 34.288465,169.17562 127.57554,75.888544"
       style="fill:none;fill-rule:evenodd;stroke:#000000;stroke-width:1;stroke-linecap:butt;stroke-linejoin:miter;stroke-miterlimit:4;stroke-dasharray:none;stroke-opacity:1" />
    <circle
       r="6.31315"
       cy="92.793091"
       cx="403.62259"
       style="fill:none;stroke:#000000;stroke-width:1;stroke-miterlimit:4;stroke-dasharray:none;stroke-dashoffset:0;stroke-opacity:1"
       id="basket"
       inkscape:label="#path7228" />
    <path
       d="m 357.81776,199.51819 a 46.110153,46.110146 0 0 1 46.11016,-46.11015 46.110153,46.110146 0 0 1 46.11015,46.11015"
       sodipodi:end="0"
       sodipodi:start="3.1415927"
       sodipodi:ry="46.110146"
       sodipodi:rx="46.110153"
       sodipodi:cy="199.51819"
       sodipodi:cx="403.92792"
       sodipodi:type="arc"
       id="path7174"
       style="fill:none;stroke:#000000;stroke-width:1;stroke-miterlimit:4;stroke-dasharray:8, 8;stroke-dashoffset:0;stroke-opacity:1"
       sodipodi:open="true" />
    <path
       style="fill:none;fill-rule:evenodd;stroke:#000000;stroke-width:2.5;stroke-linecap:butt;stroke-linejoin:miter;stroke-opacity:1;stroke-miterlimit:4;stroke-dasharray:none"
       d="m 80.932,56.56816 0,131.92784"
       id="path9458"
       inkscape:connector-curvature="0"
       sodipodi:nodetypes="cc" />
    <path
       sodipodi:nodetypes="cc"
       inkscape:connector-curvature="0"
       id="path9460"
       d="m 14.96808,122.53208 131.92784,0"
       style="fill:none;fill-rule:evenodd;stroke:#000000;stroke-width:2.5;stroke-linecap:butt;stroke-linejoin:miter;stroke-miterlimit:4;stroke-dasharray:none;stroke-opacity:1" />
    <path
       style="fill:none;fill-rule:evenodd;stroke:#000000;stroke-width:1;stroke-linecap:butt;stroke-linejoin:miter;stroke-miterlimit:4;stroke-dasharray:none;stroke-opacity:1"
       d="M 19.989284,147.77538 141.87472,97.288781"
       id="path9462"
       inkscape:connector-curvature="0"
       sodipodi:nodetypes="cc" />
    <path
       sodipodi:nodetypes="cc"
       inkscape:connector-curvature="0"
       id="path9472"
       d="M 141.87472,147.77538 19.989283,97.288782"
       style="fill:none;fill-rule:evenodd;stroke:#000000;stroke-width:1;stroke-linecap:butt;stroke-linejoin:miter;stroke-miterlimit:4;stroke-dasharray:none;stroke-opacity:1" />
    <path
       style="fill:none;fill-rule:evenodd;stroke:#000000;stroke-width:1;stroke-linecap:butt;stroke-linejoin:miter;stroke-miterlimit:4;stroke-dasharray:none;stroke-opacity:1"
       d="M 127.57554,169.17562 34.288464,75.888545"
       id="path9470"
       inkscape:connector-curvature="0"
       sodipodi:nodetypes="cc" />
    <path
       sodipodi:nodetypes="cc"
       inkscape:connector-curvature="0"
       id="path9468"
       d="M 106.1753,183.4748 55.688701,61.589364"
       style="fill:none;fill-rule:evenodd;stroke:#000000;stroke-width:1;stroke-linecap:butt;stroke-linejoin:miter;stroke-miterlimit:4;stroke-dasharray:none;stroke-opacity:1" />
    <path
       style="fill:none;fill-rule:evenodd;stroke:#000000;stroke-width:1;stroke-linecap:butt;stroke-linejoin:miter;stroke-miterlimit:4;stroke-dasharray:none;stroke-opacity:1"
       d="M 55.688702,183.4748 106.1753,61.589363"
       id="path9466"
       inkscape:connector-curvature="0"
       sodipodi:nodetypes="cc" />
    <ellipse
       style="fill:#ffffff;fill-opacity:1;stroke:none;stroke-width:2;stroke-miterlimit:4;stroke-dasharray:none;stroke-dashoffset:0;stroke-opacity:1"
       id="ellipse9456"
       cx="81.004265"
       cy="122.4135"
       rx="56.325264"
       ry="56.325253" />
  </g>
  <path
     style="fill:none;fill-rule:evenodd;stroke:#000000;stroke-width:0.1;stroke-linecap:butt;stroke-linejoin:miter;stroke-opacity:1;stroke-miterlimit:4;stroke-dasharray:none"
     d="m 410.1852,246.74276 -6.48148,-142.5926"
     id="ball5"
     inkscape:connector-curvature="0"
     inkscape:label="#path4519" />
  <path
     inkscape:label="#path14564"
     inkscape:connector-curvature="0"
     id="move5"
     d="m 475.19574,204.78695 c -3.25119,-50.64115 -8.44748,-98.37133 5.3428,-98.66335"
     style="opacity:0.4;fill:none;stroke:#000000;stroke-width:3;stroke-linecap:butt;stroke-linejoin:miter;stroke-miterlimit:4;stroke-dasharray:none;stroke-dashoffset:0;stroke-opacity:1;marker-end:url(#marker8456)"
     sodipodi:nodetypes="cc" />
  <g
     id="hand_clock"
     inkscape:label="#g33125">
    <path
       sodipodi:nodetypes="cc"
       inkscape:connector-curvature="0"
       id="path7194"
       d="m 81.004171,122.41366 -0.4575,50.38046"
       style="fill:none;stroke:#000000;stroke-width:2;stroke-linecap:butt;stroke-linejoin:miter;stroke-miterlimit:4;stroke-dasharray:none;stroke-opacity:1" />
    <circle
       r="2.8655119"
       cy="176.15936"
       cx="80.546677"
       id="path7196"
       style="fill:none;stroke:#000000;stroke-width:2;stroke-miterlimit:4;stroke-dasharray:none;stroke-dashoffset:0;stroke-opacity:1" />
  </g>
  <path
     style="opacity:0.4;fill:none;stroke:#000000;stroke-width:3;stroke-linecap:butt;stroke-linejoin:miter;stroke-miterlimit:4;stroke-dasharray:3, 9;stroke-dashoffset:0;stroke-opacity:1;marker-end:url(#marker22982)"
     d="m 585.31495,235.85667 c -17.40581,38.78137 -83.6433,39.77018 -90.19058,41.07964"
     id="move1"
     inkscape:connector-curvature="0"
     sodipodi:nodetypes="cc"
     inkscape:label="#path7230" />
  <path
     inkscape:connector-curvature="0"
     id="ball3"
     d="M 401.15973,286.429 227.94916,206.79781"
     style="opacity:0.4;fill:none;stroke:#000000;stroke-width:3;stroke-linecap:butt;stroke-linejoin:miter;stroke-miterlimit:4;stroke-dasharray:6, 6;stroke-dashoffset:0;stroke-opacity:1;marker-end:url(#marker23118)"
     sodipodi:nodetypes="cc"
     inkscape:label="#path11240" />
  <path
     inkscape:connector-curvature="0"
     id="ball4"
     d="m 227.72275,206.30506 182.65724,39.609"
     style="opacity:0.4;fill:none;stroke:#000000;stroke-width:3;stroke-linecap:butt;stroke-linejoin:miter;stroke-miterlimit:4;stroke-dasharray:6, 6;stroke-dashoffset:0;stroke-opacity:1;marker-end:url(#marker23598)"
     sodipodi:nodetypes="cc"
     inkscape:label="#path11894" />
  <path
     inkscape:connector-curvature="0"
     id="move3"
     d="m 331.99974,209.54611 66.27409,75.17881"
     style="opacity:0.4;fill:none;stroke:#000000;stroke-width:3;stroke-linecap:butt;stroke-linejoin:miter;stroke-miterlimit:4;stroke-dasharray:none;stroke-dashoffset:0;stroke-opacity:1;marker-end:url(#marker23050)"
     sodipodi:nodetypes="cc"
     inkscape:label="#path12554" />
  <path
     sodipodi:nodetypes="ccc"
     style="opacity:0.4;fill:none;stroke:#000000;stroke-width:3;stroke-linecap:butt;stroke-linejoin:miter;stroke-miterlimit:4;stroke-dasharray:none;stroke-dashoffset:0;stroke-opacity:1;marker-end:url(#marker23432)"
     d="m 481.87001,105.46574 8.11263,33.67136 c 30.23115,4.27511 -79.38576,107.08232 -79.38576,107.08232"
     id="move6"
     inkscape:connector-curvature="0"
     inkscape:label="#path13394" />
  <path
     sodipodi:nodetypes="cc"
     style="opacity:0.4;fill:none;stroke:#000000;stroke-width:3;stroke-linecap:butt;stroke-linejoin:miter;stroke-miterlimit:4;stroke-dasharray:none;stroke-dashoffset:0;stroke-opacity:1;marker-end:url(#StopM)"
     d="m 398.34389,283.72214 c 4.15621,-50.64115 21.41363,-88.41763 57.88909,-147.27447"
     id="move4"
     inkscape:connector-curvature="0"
     inkscape:label="#path14564" />
  <path
     sodipodi:nodetypes="cc"
     style="opacity:0.4;fill:none;stroke:#000000;stroke-width:3;stroke-linecap:butt;stroke-linejoin:miter;stroke-miterlimit:4;stroke-dasharray:none;stroke-dashoffset:0;stroke-opacity:1"
     d="m 583.22036,107.07656 -86.02141,0.95885"
     id="move7"
     inkscape:connector-curvature="0"
     inkscape:label="#path18226" />
  <path
     sodipodi:nodetypes="cc"
     style="opacity:0.4;fill:none;stroke:#000000;stroke-width:3;stroke-linecap:butt;stroke-linejoin:miter;stroke-miterlimit:4;stroke-dasharray:none;stroke-dashoffset:0;stroke-opacity:1;marker-end:url(#marker23770)"
     d="M 498.07678,107.99527 C 495.02314,73.489001 337.58823,104.00316 332.39702,106.75145"
     id="path20854"
     inkscape:connector-curvature="0" />
  <path
     sodipodi:nodetypes="cc"
     style="opacity:0.4;fill:none;stroke:#000000;stroke-width:3;stroke-linecap:butt;stroke-linejoin:miter;stroke-miterlimit:4;stroke-dasharray:none;stroke-dashoffset:0;stroke-opacity:1;marker-end:url(#marker23272)"
     d="m 494.56232,277.21176 c 7.02602,-51.02848 66.65672,-89.71747 80.11478,-108.52073"
     id="move2"
     inkscape:connector-curvature="0"
     inkscape:label="#path21496" />
  <path
     inkscape:connector-curvature="0"
     id="move8"
     d="m 497.9241,108.06446 c -3.05364,34.50626 -160.48855,3.99211 -165.67976,1.24382"
     style="opacity:0.4;fill:none;stroke:#000000;stroke-width:3;stroke-linecap:butt;stroke-linejoin:miter;stroke-miterlimit:4;stroke-dasharray:none;stroke-dashoffset:0;stroke-opacity:1;marker-end:url(#marker27744)"
     sodipodi:nodetypes="cc"
     inkscape:label="#path27742" />
  <path
     inkscape:label="#path7230"
     sodipodi:nodetypes="cc"
     inkscape:connector-curvature="0"
     id="ball2"
     d="m 495.82254,276.83336 -95.74162,9.61638"
     style="opacity:0.4;fill:none;stroke:#000000;stroke-width:3;stroke-linecap:butt;stroke-linejoin:miter;stroke-miterlimit:4;stroke-dasharray:6, 6;stroke-dashoffset:0;stroke-opacity:1;marker-end:url(#marker33250)" />
  <g
     id="player1"
     transform="translate(3.3512858,-95.994752)"
     inkscape:label="#g33057">
    <circle
       style="fill:#0078b6;fill-opacity:1;stroke:#000000;stroke-width:0.5;stroke-miterlimit:4;stroke-dasharray:none;stroke-dashoffset:0;stroke-opacity:1"
       id="circle29069"
       cx="584.22473"
       cy="332.03375"
       r="10.068069" />
    <text
       transform="scale(0.99997461,1.0000254)"
       sodipodi:linespacing="125%"
       id="text33025"
       y="336.12598"
       x="580.56238"
       style="font-style:normal;font-weight:normal;font-size:39.99755096px;line-height:125%;font-family:sans-serif;letter-spacing:0px;word-spacing:0px;fill:#000000;fill-opacity:1;stroke:none;stroke-width:1px;stroke-linecap:butt;stroke-linejoin:miter;stroke-opacity:1"
       xml:space="preserve"><tspan
         style="font-size:11.24931145px;fill:#ffffff;fill-opacity:1"
         id="tspan33029"
         y="336.12598"
         x="580.56238"
         sodipodi:role="line">1</tspan></text>
  </g>
  <g
     id="player2"
     transform="translate(-0.98629056,-91.902699)"
     inkscape:label="#g33105">
    <circle
       r="10.068069"
       cy="297.82794"
       cx="227.74899"
       id="path29063"
       style="fill:#0078b6;fill-opacity:1;stroke:#000000;stroke-width:0.5;stroke-miterlimit:4;stroke-dasharray:none;stroke-dashoffset:0;stroke-opacity:1" />
    <text
       xml:space="preserve"
       style="font-style:normal;font-weight:normal;font-size:39.99654388px;line-height:125%;font-family:sans-serif;letter-spacing:0px;word-spacing:0px;fill:#000000;fill-opacity:1;stroke:none;stroke-width:1px;stroke-linecap:butt;stroke-linejoin:miter;stroke-opacity:1"
       x="224.32462"
       y="301.99844"
       id="text33048"
       sodipodi:linespacing="125%"
       transform="scale(0.99998661,1.0000134)"><tspan
         sodipodi:role="line"
         x="224.32462"
         y="301.99844"
         id="tspan33050"
         style="font-size:11.24902821px;fill:#ffffff;fill-opacity:1">2</tspan></text>
  </g>
  <g
     id="player5"
     transform="translate(-0.98629056,-91.902699)"
     inkscape:label="#g33110">
    <circle
       style="fill:#0078b6;fill-opacity:1;stroke:#000000;stroke-width:0.5;stroke-miterlimit:4;stroke-dasharray:none;stroke-dashoffset:0;stroke-opacity:1"
       id="circle29073"
       cx="333.50607"
       cy="300.78586"
       r="10.068069" />
    <text
       transform="scale(0.99999829,1.0000017)"
       sodipodi:linespacing="125%"
       id="text33062"
       y="304.80618"
       x="329.98572"
       style="font-style:normal;font-weight:normal;font-size:39.99707794px;line-height:125%;font-family:sans-serif;letter-spacing:0px;word-spacing:0px;fill:#000000;fill-opacity:1;stroke:none;stroke-width:1px;stroke-linecap:butt;stroke-linejoin:miter;stroke-opacity:1"
       xml:space="preserve"><tspan
         style="font-size:11.24917889px;fill:#ffffff;fill-opacity:1"
         id="tspan33064"
         y="304.80618"
         x="329.98572"
         sodipodi:role="line">5</tspan></text>
  </g>
  <g
     id="player3"
     transform="translate(-0.98629056,-91.902699)"
     inkscape:label="#g33120">
    <circle
       r="10.068069"
       cy="198.55446"
       cx="584.04895"
       id="circle29075"
       style="fill:#0078b6;fill-opacity:1;stroke:#000000;stroke-width:0.5;stroke-miterlimit:4;stroke-dasharray:none;stroke-dashoffset:0;stroke-opacity:1" />
    <text
       xml:space="preserve"
       style="font-style:normal;font-weight:normal;font-size:39.99755096px;line-height:125%;font-family:sans-serif;letter-spacing:0px;word-spacing:0px;fill:#000000;fill-opacity:1;stroke:none;stroke-width:1px;stroke-linecap:butt;stroke-linejoin:miter;stroke-opacity:1"
       x="580.53766"
       y="202.63449"
       id="text33066"
       sodipodi:linespacing="125%"
       transform="scale(0.99992252,1.0000775)"><tspan
         id="tspan33092"
         sodipodi:role="line"
         x="580.53766"
         y="202.63449"
         style="font-size:11.24931145px;fill:#ffffff;fill-opacity:1">3</tspan></text>
  </g>
  <g
     id="player4"
     transform="translate(-0.98629056,-91.902699)"
     inkscape:label="#g33115">
    <circle
       r="10.068069"
       cy="296.25778"
       cx="476.03363"
       id="circle29071"
       style="fill:#0078b6;fill-opacity:1;stroke:#000000;stroke-width:0.5;stroke-miterlimit:4;stroke-dasharray:none;stroke-dashoffset:0;stroke-opacity:1" />
    <text
       transform="scale(0.99997088,1.0000291)"
       sodipodi:linespacing="125%"
       id="text33070"
       y="300.34976"
       x="472.5105"
       style="font-style:normal;font-weight:normal;font-size:39.99755096px;line-height:125%;font-family:sans-serif;letter-spacing:0px;word-spacing:0px;fill:#000000;fill-opacity:1;stroke:none;stroke-width:1px;stroke-linecap:butt;stroke-linejoin:miter;stroke-opacity:1"
       xml:space="preserve"><tspan
         style="font-size:11.24931145px;fill:#ffffff;fill-opacity:1"
         id="tspan33072"
         y="300.34976"
         x="472.5105"
         sodipodi:role="line">4</tspan></text>
  </g>
  <g
     id="ball"
     transform="matrix(0.02542068,0,0,0.02542067,581.82767,219.91546)"
     inkscape:label="#g29034">
    <g
       id="g28974">
      <g
         id="g28976">
        <circle
           id="circle28978"
           r="240"
           cy="240"
           cx="240"
           style="fill:#ff9100" />
      </g>
      <g
         id="g28980">
        <path
           id="path28982"
           d="m 240,480 c 66.274,0 126.274,-26.862 169.706,-70.294 L 70.294,70.294 C 26.862,113.726 0,173.726 0,240 0,372.548 107.452,480 240,480 Z"
           style="fill:#ff4f19"
           inkscape:connector-curvature="0" />
      </g>
      <g
         id="g28984">
        <path
           id="path28986"
           d="m 328.203,248 151.594,0 c 0.088,-2.662 0.203,-5.317 0.203,-8 0,-2.683 -0.115,-5.338 -0.203,-8 l -151.594,0 C 330.442,166.377 360.065,107.596 405.961,66.724 402.096,63.021 398.13,59.425 394.025,55.985 345.596,99.739 314.429,162.267 312.203,232 l -63.984,0 0,-231.792 C 245.485,0.116 242.756,0 240,0 c -2.61,0 -5.192,0.114 -7.781,0.197 l 0,231.803 -56.422,0 C 173.513,160.446 140.762,96.475 90.15,52.595 c -4.219,3.378 -8.343,6.868 -12.323,10.519 48.277,40.98 79.664,101.29 81.971,168.887 l -159.595,0 C 0.115,234.662 0,237.317 0,240 c 0,2.683 0.115,5.338 0.203,8 l 159.595,0 c -2.307,67.597 -33.693,127.906 -81.971,168.887 3.979,3.65 8.104,7.14 12.323,10.519 50.613,-43.88 83.363,-107.852 85.647,-179.405 l 56.422,0 0,231.803 c 2.589,0.082 5.171,0.196 7.781,0.196 2.756,0 5.485,-0.116 8.219,-0.208 l 0,-231.792 63.984,0 c 2.226,69.733 33.393,132.261 81.822,176.015 4.104,-3.44 8.07,-7.036 11.936,-10.739 C 360.064,372.404 330.442,313.622 328.203,248 Z"
           style="fill:#74829c"
           inkscape:connector-curvature="0" />
      </g>
      <g
         id="g28988">
        <g
           id="g28990">
          <path
             id="path28992"
             d="m 394.025,424.015 0.007,-0.006 c 4.099,-3.435 8.059,-7.025 11.918,-10.723 0.003,-0.003 0.007,-0.007 0.011,-0.01 -16.007,-14.254 -29.977,-30.727 -41.553,-48.868 l -35.923,-35.923 c 14.136,36.845 36.753,69.522 65.54,95.53 z"
             style="fill:#5c546a"
             inkscape:connector-curvature="0" />
        </g>
        <g
           id="g28994">
          <path
             id="path28996"
             d="M 248.219,248.219 232,232 l -56.203,0 c -0.756,-23.692 -4.917,-46.523 -11.896,-68.099 L 134.352,134.352 C 149.513,163.827 158.6,196.915 159.797,232 L 0.203,232 C 0.115,234.662 0,237.317 0,240 c 0,2.683 0.115,5.338 0.203,8 l 159.595,0 c -2.307,67.597 -33.693,127.906 -81.971,168.887 3.977,3.648 8.099,7.136 12.316,10.513 0,0 0.005,0.003 0.007,0.005 50.613,-43.88 83.363,-107.851 85.647,-179.405 l 56.422,0 0,231.803 c 2.589,0.083 5.171,0.197 7.781,0.197 2.756,0 5.485,-0.116 8.219,-0.208 l 0,-231.573 z"
             style="fill:#5c546a"
             inkscape:connector-curvature="0" />
        </g>
      </g>
    </g>
    <g
       id="g28998" />
    <g
       id="g29000" />
    <g
       id="g29002" />
    <g
       id="g29004" />
    <g
       id="g29006" />
    <g
       id="g29008" />
    <g
       id="g29010" />
    <g
       id="g29012" />
    <g
       id="g29014" />
    <g
       id="g29016" />
    <g
       id="g29018" />
    <g
       id="g29020" />
    <g
       id="g29022" />
    <g
       id="g29024" />
    <g
       id="g29026" />
  </g>
</svg>
