<?xml version="1.0" encoding="UTF-8" standalone="no"?>
<svg
   xmlns:dc="http://purl.org/dc/elements/1.1/"
   xmlns:cc="http://creativecommons.org/ns#"
   xmlns:rdf="http://www.w3.org/1999/02/22-rdf-syntax-ns#"
   xmlns:svg="http://www.w3.org/2000/svg"
   xmlns="http://www.w3.org/2000/svg"
   id="svg3465"
   width="619.25104"
   height="468.965"
   viewBox="0 0 619.25104 468.965"
   version="1.1">
  <metadata
     id="metadata3471">
    <rdf:RDF>
      <cc:Work
         rdf:about="">
        <dc:format>image/svg+xml</dc:format>
        <dc:type
           rdf:resource="http://purl.org/dc/dcmitype/StillImage" />
        <dc:title></dc:title>
      </cc:Work>
    </rdf:RDF>
  </metadata>
  <defs
     id="defs3469">
    <marker
       orient="auto"
       refY="0.0"
       refX="0.0"
       id="marker8456"
       style="overflow:visible">
      <path
         id="path8458"
         d="M 0.0,5.65 L 0.0,-5.65"
         style="fill:none;fill-opacity:0.75;fill-rule:evenodd;stroke:#000000;stroke-width:1pt;stroke-opacity:1"
         transform="scale(0.4)" />
    </marker>
    <marker
       orient="auto"
       refY="0.0"
       refX="0.0"
       id="marker7620"
       style="overflow:visible">
      <path
         id="path7622"
         d="M 0.0,5.65 L 0.0,-5.65"
         style="fill:none;fill-opacity:0.75;fill-rule:evenodd;stroke:#000000;stroke-width:1pt;stroke-opacity:1"
         transform="scale(0.4)" />
    </marker>
    <marker
       style="overflow:visible"
       id="StopM"
       refX="0.0"
       refY="0.0"
       orient="auto">
      <path
         transform="scale(0.4)"
         style="fill:none;fill-opacity:0.75;fill-rule:evenodd;stroke:#000000;stroke-width:1pt;stroke-opacity:1"
         d="M 0.0,5.65 L 0.0,-5.65"
         id="path5750" />
    </marker>
    <marker
       style="overflow:visible"
       id="StopL"
       refX="0.0"
       refY="0.0"
       orient="auto">
      <path
         transform="scale(0.8)"
         style="fill:none;fill-opacity:0.75;fill-rule:evenodd;stroke:#000000;stroke-width:1pt;stroke-opacity:1"
         d="M 0.0,5.65 L 0.0,-5.65"
         id="path5747" />
    </marker>
    <marker
       style="overflow:visible"
       id="marker5384"
       refX="0"
       refY="0"
       orient="auto">
      <path
         transform="scale(0.4,0.4)"
         style="fill:none;fill-opacity:0.75;fill-rule:evenodd;stroke:#000000;stroke-width:1pt;stroke-opacity:1"
         d="M 0,5.65 0,-5.65"
         id="path5386" />
    </marker>
    <marker
       style="overflow:visible"
       id="marker33250"
       refX="0"
       refY="0"
       orient="auto">
      <path
         transform="scale(-0.6,-0.6)"
         d="M 8.7185878,4.0337352 -2.2072895,0.01601326 8.7185884,-4.0017078 c -1.7454984,2.3720609 -1.7354408,5.6174519 -6e-7,8.035443 z"
         style="fill:#000000;fill-opacity:1;fill-rule:evenodd;stroke:#000000;stroke-width:0.625;stroke-linejoin:round;stroke-opacity:1"
         id="path33252" />
    </marker>
    <marker
       orient="auto"
       refY="0"
       refX="0"
       id="marker31575"
       style="overflow:visible">
      <path
         id="path31577"
         d="M 0,5.65 0,-5.65"
         style="fill:none;fill-opacity:0.75;fill-rule:evenodd;stroke:#000000;stroke-width:1pt;stroke-opacity:1"
         transform="scale(0.8,0.8)" />
    </marker>
    <marker
       style="overflow:visible"
       id="marker27744"
       refX="0"
       refY="0"
       orient="auto">
      <path
         transform="scale(-0.6,-0.6)"
         d="M 8.7185878,4.0337352 -2.2072895,0.01601326 8.7185884,-4.0017078 c -1.7454984,2.3720609 -1.7354408,5.6174519 -6e-7,8.035443 z"
         style="fill:#000000;fill-opacity:1;fill-rule:evenodd;stroke:#000000;stroke-width:0.625;stroke-linejoin:round;stroke-opacity:1"
         id="path27746" />
    </marker>
    <marker
       style="overflow:visible"
       id="Arrow2Mend"
       refX="0"
       refY="0"
       orient="auto">
      <path
         transform="scale(-0.6,-0.6)"
         d="M 8.7185878,4.0337352 -2.2072895,0.01601326 8.7185884,-4.0017078 c -1.7454984,2.3720609 -1.7354408,5.6174519 -6e-7,8.035443 z"
         style="fill-rule:evenodd;stroke-width:0.625;stroke-linejoin:round"
         id="path7263" />
    </marker>
    <marker
       orient="auto"
       refY="0"
       refX="0"
       id="marker23770"
       style="overflow:visible">
      <path
         id="path23772"
         style="fill:#000000;fill-opacity:1;fill-rule:evenodd;stroke:#000000;stroke-width:0.625;stroke-linejoin:round;stroke-opacity:1"
         d="M 8.7185878,4.0337352 -2.2072895,0.01601326 8.7185884,-4.0017078 c -1.7454984,2.3720609 -1.7354408,5.6174519 -6e-7,8.035443 z"
         transform="scale(-0.6,-0.6)" />
    </marker>
    <marker
       style="overflow:visible"
       id="marker23598"
       refX="0"
       refY="0"
       orient="auto">
      <path
         transform="scale(-0.6,-0.6)"
         d="M 8.7185878,4.0337352 -2.2072895,0.01601326 8.7185884,-4.0017078 c -1.7454984,2.3720609 -1.7354408,5.6174519 -6e-7,8.035443 z"
         style="fill:#000000;fill-opacity:1;fill-rule:evenodd;stroke:#000000;stroke-width:0.625;stroke-linejoin:round;stroke-opacity:1"
         id="path23600" />
    </marker>
    <marker
       orient="auto"
       refY="0"
       refX="0"
       id="marker23432"
       style="overflow:visible">
      <path
         id="path23434"
         style="fill:#000000;fill-opacity:1;fill-rule:evenodd;stroke:#000000;stroke-width:0.625;stroke-linejoin:round;stroke-opacity:1"
         d="M 8.7185878,4.0337352 -2.2072895,0.01601326 8.7185884,-4.0017078 c -1.7454984,2.3720609 -1.7354408,5.6174519 -6e-7,8.035443 z"
         transform="scale(-0.6,-0.6)" />
    </marker>
    <marker
       style="overflow:visible"
       id="marker23272"
       refX="0"
       refY="0"
       orient="auto">
      <path
         transform="scale(-0.6,-0.6)"
         d="M 8.7185878,4.0337352 -2.2072895,0.01601326 8.7185884,-4.0017078 c -1.7454984,2.3720609 -1.7354408,5.6174519 -6e-7,8.035443 z"
         style="fill:#000000;fill-opacity:1;fill-rule:evenodd;stroke:#000000;stroke-width:0.625;stroke-linejoin:round;stroke-opacity:1"
         id="path23274" />
    </marker>
    <marker
       orient="auto"
       refY="0"
       refX="0"
       id="marker23118"
       style="overflow:visible">
      <path
         id="path23120"
         style="fill:#000000;fill-opacity:1;fill-rule:evenodd;stroke:#000000;stroke-width:0.625;stroke-linejoin:round;stroke-opacity:1"
         d="M 8.7185878,4.0337352 -2.2072895,0.01601326 8.7185884,-4.0017078 c -1.7454984,2.3720609 -1.7354408,5.6174519 -6e-7,8.035443 z"
         transform="scale(-0.6,-0.6)" />
    </marker>
    <marker
       style="overflow:visible"
       id="marker23050"
       refX="0"
       refY="0"
       orient="auto">
      <path
         transform="scale(-0.6,-0.6)"
         d="M 8.7185878,4.0337352 -2.2072895,0.01601326 8.7185884,-4.0017078 c -1.7454984,2.3720609 -1.7354408,5.6174519 -6e-7,8.035443 z"
         style="fill:#000000;fill-opacity:1;fill-rule:evenodd;stroke:#000000;stroke-width:0.625;stroke-linejoin:round;stroke-opacity:1"
         id="path23052" />
    </marker>
    <marker
       orient="auto"
       refY="0"
       refX="0"
       id="marker22982"
       style="overflow:visible">
      <path
         id="path22984"
         style="fill:#000000;fill-opacity:1;fill-rule:evenodd;stroke:#000000;stroke-width:0.625;stroke-linejoin:round;stroke-opacity:1"
         d="M 8.7185878,4.0337352 -2.2072895,0.01601326 8.7185884,-4.0017078 c -1.7454984,2.3720609 -1.7354408,5.6174519 -6e-7,8.035443 z"
         transform="scale(-0.6,-0.6)" />
    </marker>
    <marker
       style="overflow:visible"
       id="Arrow2Send"
       refX="0"
       refY="0"
       orient="auto">
      <path
         transform="matrix(-0.3,0,0,-0.3,0.69,0)"
         d="M 8.7185878,4.0337352 -2.2072895,0.01601326 8.7185884,-4.0017078 c -1.7454984,2.3720609 -1.7354408,5.6174519 -6e-7,8.035443 z"
         style="fill:#ff0000;fill-opacity:1;fill-rule:evenodd;stroke:#ff0000;stroke-width:0.625;stroke-linejoin:round;stroke-opacity:1"
         id="path7269" />
    </marker>
    <marker
       style="overflow:visible"
       id="marker21498"
       refX="0"
       refY="0"
       orient="auto">
      <path
         transform="matrix(-1.1,0,0,-1.1,-1.1,0)"
         d="M 8.7185878,4.0337352 -2.2072895,0.01601326 8.7185884,-4.0017078 c -1.7454984,2.3720609 -1.7354408,5.6174519 -6e-7,8.035443 z"
         style="fill:#ff0000;fill-opacity:1;fill-rule:evenodd;stroke:#ff0000;stroke-width:0.625;stroke-linejoin:round;stroke-opacity:1"
         id="path21500" />
    </marker>
    <marker
       style="overflow:visible"
       id="marker20856"
       refX="0"
       refY="0"
       orient="auto">
      <path
         transform="matrix(-1.1,0,0,-1.1,-1.1,0)"
         d="M 8.7185878,4.0337352 -2.2072895,0.01601326 8.7185884,-4.0017078 c -1.7454984,2.3720609 -1.7354408,5.6174519 -6e-7,8.035443 z"
         style="fill:#ff0000;fill-opacity:1;fill-rule:evenodd;stroke:#ff0000;stroke-width:0.625;stroke-linejoin:round;stroke-opacity:1"
         id="path20858" />
    </marker>
    <marker
       orient="auto"
       refY="0"
       refX="0"
       id="marker16522"
       style="overflow:visible">
      <path
         id="path16524"
         d="M 0,5.65 0,-5.65"
         style="fill:none;fill-opacity:0.75;fill-rule:evenodd;stroke:#000000;stroke-width:1pt;stroke-opacity:0.37179488"
         transform="scale(0.8,0.8)" />
    </marker>
    <marker
       orient="auto"
       refY="0"
       refX="0"
       id="DistanceEnd"
       style="overflow:visible">
      <g
         style="fill:#ff0000;fill-opacity:1;stroke:#ff0000;stroke-opacity:1"
         id="g2301">
        <path
           id="path2316"
           d="M 0,0 -2,0"
           style="fill:#ff0000;fill-opacity:1;stroke:#ff0000;stroke-width:1.14999998;stroke-linecap:square;stroke-opacity:1" />
        <path
           id="path2312"
           d="M 0,0 -13,4 -9,0 -13,-4 0,0 Z"
           style="fill:#ff0000;fill-opacity:1;fill-rule:evenodd;stroke:#ff0000;stroke-opacity:1" />
        <path
           id="path2314"
           d="M 0,-4 0,40"
           style="fill:#ff0000;fill-opacity:1;stroke:#ff0000;stroke-width:1;stroke-linecap:square;stroke-opacity:1" />
      </g>
    </marker>
    <marker
       orient="auto"
       refY="0"
       refX="0"
       id="DistanceStart"
       style="overflow:visible">
      <g
         style="fill:#ff0000;fill-opacity:1;stroke:#ff0000;stroke-opacity:1"
         id="g2300">
        <path
           id="path2306"
           d="M 0,0 2,0"
           style="fill:#ff0000;fill-opacity:1;stroke:#ff0000;stroke-width:1.14999998;stroke-linecap:square;stroke-opacity:1" />
        <path
           id="path2302"
           d="M 0,0 13,4 9,0 13,-4 0,0 Z"
           style="fill:#ff0000;fill-opacity:1;fill-rule:evenodd;stroke:#ff0000;stroke-opacity:1" />
        <path
           id="path2304"
           d="M 0,-4 0,40"
           style="fill:#ff0000;fill-opacity:1;stroke:#ff0000;stroke-width:1;stroke-linecap:square;stroke-opacity:1" />
      </g>
    </marker>
    <marker
       style="overflow:visible"
       id="marker14566"
       refX="0"
       refY="0"
       orient="auto">
      <path
         transform="matrix(-1.1,0,0,-1.1,-1.1,0)"
         d="M 8.7185878,4.0337352 -2.2072895,0.01601326 8.7185884,-4.0017078 c -1.7454984,2.3720609 -1.7354408,5.6174519 -6e-7,8.035443 z"
         style="fill:#ff0000;fill-opacity:1;fill-rule:evenodd;stroke:#ff0000;stroke-width:0.625;stroke-linejoin:round;stroke-opacity:1"
         id="path14568" />
    </marker>
    <marker
       style="overflow:visible"
       id="marker13396"
       refX="0"
       refY="0"
       orient="auto">
      <path
         transform="matrix(-1.1,0,0,-1.1,-1.1,0)"
         d="M 8.7185878,4.0337352 -2.2072895,0.01601326 8.7185884,-4.0017078 c -1.7454984,2.3720609 -1.7354408,5.6174519 -6e-7,8.035443 z"
         style="fill:#ff0000;fill-opacity:1;fill-rule:evenodd;stroke:#ff0000;stroke-width:0.625;stroke-linejoin:round;stroke-opacity:1"
         id="path13398" />
    </marker>
    <marker
       orient="auto"
       refY="0"
       refX="0"
       id="marker11896"
       style="overflow:visible">
      <path
         id="path11898"
         style="fill:#ff0000;fill-opacity:1;fill-rule:evenodd;stroke:#ff0000;stroke-width:0.625;stroke-linejoin:round;stroke-opacity:1"
         d="M 8.7185878,4.0337352 -2.2072895,0.01601326 8.7185884,-4.0017078 c -1.7454984,2.3720609 -1.7354408,5.6174519 -6e-7,8.035443 z"
         transform="matrix(-1.1,0,0,-1.1,-1.1,0)" />
    </marker>
    <marker
       orient="auto"
       refY="0"
       refX="0"
       id="marker11242"
       style="overflow:visible">
      <path
         id="path11244"
         style="fill:#ff0000;fill-opacity:1;fill-rule:evenodd;stroke:#ff0000;stroke-width:0.625;stroke-linejoin:round;stroke-opacity:1"
         d="M 8.7185878,4.0337352 -2.2072895,0.01601326 8.7185884,-4.0017078 c -1.7454984,2.3720609 -1.7354408,5.6174519 -6e-7,8.035443 z"
         transform="matrix(-1.1,0,0,-1.1,-1.1,0)" />
    </marker>
    <marker
       orient="auto"
       refY="0"
       refX="0"
       id="marker10468"
       style="overflow:visible">
      <path
         id="path10470"
         style="fill:#ff0000;fill-opacity:1;fill-rule:evenodd;stroke:#ff0000;stroke-width:0.625;stroke-linejoin:round;stroke-opacity:1"
         d="M 8.7185878,4.0337352 -2.2072895,0.01601326 8.7185884,-4.0017078 c -1.7454984,2.3720609 -1.7354408,5.6174519 -6e-7,8.035443 z"
         transform="matrix(-1.1,0,0,-1.1,-1.1,0)" />
    </marker>
    <marker
       style="overflow:visible"
       id="marker7512"
       refX="0"
       refY="0"
       orient="auto">
      <path
         transform="matrix(-0.8,0,0,-0.8,-10,0)"
         style="fill:#ff0000;fill-opacity:1;fill-rule:evenodd;stroke:#ff0000;stroke-width:1pt;stroke-opacity:1"
         d="M 0,0 5,-5 -12.5,0 5,5 0,0 Z"
         id="path7514" />
    </marker>
    <marker
       style="overflow:visible"
       id="Arrow1Lend"
       refX="0"
       refY="0"
       orient="auto">
      <path
         transform="matrix(-0.8,0,0,-0.8,-10,0)"
         style="fill:#ff0000;fill-opacity:1;fill-rule:evenodd;stroke:#ff0000;stroke-width:1pt;stroke-opacity:1"
         d="M 0,0 5,-5 -12.5,0 5,5 0,0 Z"
         id="path7239" />
    </marker>
  </defs>
  <g
     id="background">
    <path
       style="fill:#ace298;fill-opacity:1;stroke:#000000;stroke-width:1px;stroke-linecap:butt;stroke-linejoin:miter;stroke-opacity:1"
       d="m 233.0773,51.00828 2.9e-4,110.12216 c 0,0 36.03212,115.30437 170.7969,115.30437 134.76479,0 170.79691,-115.30437 170.79691,-115.30437 l 5.5e-4,-110.8266 z"
       id="path6368" />
    <path
       style="fill:#fee49b;fill-opacity:1;stroke:#000000;stroke-width:1px;stroke-linecap:butt;stroke-linejoin:miter;stroke-opacity:1"
       d="m 341.90392,50.57643 0,148.55695 123.50956,0 0,-148.1251 z"
       id="path7170" />
    <path
       style="fill:none;stroke:#000000;stroke-width:1px;stroke-linecap:butt;stroke-linejoin:miter;stroke-opacity:1"
       d="m 357.20712,198.90748 0,-147.79675 92.52566,0 0,147.79675"
       id="path7172" />
    <path
       id="circle7178"
       style="fill:#fee49b;fill-opacity:1;stroke:#000000;stroke-width:1;stroke-miterlimit:4;stroke-dasharray:none;stroke-opacity:1"
       d="m 450.03807,199.51819 a 46.110153,46.110146 0 0 1 -23.05508,39.93256 46.110153,46.110146 0 0 1 -46.11015,0 46.110153,46.110146 0 0 1 -23.05508,-39.93256" />
    <path
       style="fill:#fd8276;fill-opacity:1;stroke:#000000;stroke-width:1;stroke-miterlimit:4;stroke-dasharray:8, 8;stroke-dashoffset:0;stroke-opacity:1"
       id="path7180"
       d="m 434.00643,92.793091 a 30.383839,30.383835 0 0 1 -15.19192,26.313169 30.383839,30.383835 0 0 1 -30.38384,0 30.383839,30.383835 0 0 1 -15.19192,-26.313171" />
    <path
       style="fill:#fd8276;fill-opacity:1;stroke:none;stroke-width:1px;stroke-linecap:butt;stroke-linejoin:miter;stroke-opacity:1"
       d="m 434.46452,92.94577 0,-10.38242 -61.37841,0 0,10.68779 z"
       id="path7182" />
    <path
       style="fill:none;stroke:#000000;stroke-width:1px;stroke-linecap:butt;stroke-linejoin:miter;stroke-opacity:1"
       d="m 380.41488,82.41067 46.41551,0"
       id="path7184" />
    <path
       style="fill:none;stroke:#000000;stroke-width:1px;stroke-linecap:butt;stroke-linejoin:miter;stroke-opacity:1"
       d="m 208.49426,50.5 390.25675,0 0,367.65968 -390.86749,0 z"
       id="path7186" />
    <path
       style="fill:none;stroke:#000000;stroke-width:1;stroke-miterlimit:4;stroke-dasharray:none;stroke-dashoffset:0;stroke-opacity:1"
       id="path7188"
       d="m 357.51244,418.46499 a 46.415512,46.415508 0 0 1 46.41551,-46.4155 46.415512,46.415508 0 0 1 46.41551,46.41551 l -46.41551,0 z" />
    <path
       d="m 387.13286,418.465 a 16.795086,16.795082 0 0 1 16.79509,-16.79509 16.795086,16.795082 0 0 1 16.79508,16.79509"
       id="center"
       style="fill:none;stroke:#000000;stroke-width:1;stroke-miterlimit:4;stroke-dasharray:none;stroke-dashoffset:0;stroke-opacity:1" />
    <ellipse
       ry="8.1529083"
       rx="11.744839"
       cy="61.171818"
       cx="81.001945"
       id="path9474"
       style="fill:#fe0000;fill-opacity:1;stroke:none;stroke-width:1;stroke-miterlimit:4;stroke-dasharray:none;stroke-dashoffset:0;stroke-opacity:1" />
    <ellipse
       style="fill:#ffffff;stroke:#000000;stroke-width:2;stroke-miterlimit:4;stroke-dasharray:none;stroke-dashoffset:0;stroke-opacity:1;fill-opacity:1"
       id="path7192"
       cx="81.004265"
       cy="122.4135"
       rx="60.004269"
       ry="60.004257" />
    <path
       style="fill:none;fill-rule:evenodd;stroke:#000000;stroke-width:1;stroke-linecap:butt;stroke-linejoin:miter;stroke-miterlimit:4;stroke-dasharray:none;stroke-opacity:1"
       d="M 34.288465,169.17562 127.57554,75.888544"
       id="path9464" />
    <circle
       id="basket"
       style="fill:none;stroke:#000000;stroke-width:1;stroke-miterlimit:4;stroke-dasharray:none;stroke-dashoffset:0;stroke-opacity:1"
       cx="403.62259"
       cy="92.793091"
       r="6.31315" />
    <path
       style="fill:none;stroke:#000000;stroke-width:1;stroke-miterlimit:4;stroke-dasharray:8, 8;stroke-dashoffset:0;stroke-opacity:1"
       id="path7174"
       d="m 357.81776,199.51819 a 46.110153,46.110146 0 0 1 46.11016,-46.11015 46.110153,46.110146 0 0 1 46.11015,46.11015" />
    <path
       id="path9458"
       d="m 80.932,56.56816 0,131.92784"
       style="fill:none;fill-rule:evenodd;stroke:#000000;stroke-width:2.5;stroke-linecap:butt;stroke-linejoin:miter;stroke-opacity:1;stroke-miterlimit:4;stroke-dasharray:none" />
    <path
       style="fill:none;fill-rule:evenodd;stroke:#000000;stroke-width:2.5;stroke-linecap:butt;stroke-linejoin:miter;stroke-miterlimit:4;stroke-dasharray:none;stroke-opacity:1"
       d="m 14.96808,122.53208 131.92784,0"
       id="path9460" />
    <path
       id="path9462"
       d="M 19.989284,147.77538 141.87472,97.288781"
       style="fill:none;fill-rule:evenodd;stroke:#000000;stroke-width:1;stroke-linecap:butt;stroke-linejoin:miter;stroke-miterlimit:4;stroke-dasharray:none;stroke-opacity:1" />
    <path
       style="fill:none;fill-rule:evenodd;stroke:#000000;stroke-width:1;stroke-linecap:butt;stroke-linejoin:miter;stroke-miterlimit:4;stroke-dasharray:none;stroke-opacity:1"
       d="M 141.87472,147.77538 19.989283,97.288782"
       id="path9472" />
    <path
       id="path9470"
       d="M 127.57554,169.17562 34.288464,75.888545"
       style="fill:none;fill-rule:evenodd;stroke:#000000;stroke-width:1;stroke-linecap:butt;stroke-linejoin:miter;stroke-miterlimit:4;stroke-dasharray:none;stroke-opacity:1" />
    <path
       style="fill:none;fill-rule:evenodd;stroke:#000000;stroke-width:1;stroke-linecap:butt;stroke-linejoin:miter;stroke-miterlimit:4;stroke-dasharray:none;stroke-opacity:1"
       d="M 106.1753,183.4748 55.688701,61.589364"
       id="path9468" />
    <path
       id="path9466"
       d="M 55.688702,183.4748 106.1753,61.589363"
       style="fill:none;fill-rule:evenodd;stroke:#000000;stroke-width:1;stroke-linecap:butt;stroke-linejoin:miter;stroke-miterlimit:4;stroke-dasharray:none;stroke-opacity:1" />
    <ellipse
       ry="56.325253"
       rx="56.325264"
       cy="122.4135"
       cx="81.004265"
       id="ellipse9456"
       style="fill:#ffffff;fill-opacity:1;stroke:none;stroke-width:2;stroke-miterlimit:4;stroke-dasharray:none;stroke-dashoffset:0;stroke-opacity:1" />
  </g>
  <path
     style="opacity:0.4;fill:none;stroke:#000000;stroke-width:3;stroke-linecap:butt;stroke-linejoin:miter;stroke-miterlimit:4;stroke-dasharray:none;stroke-dashoffset:0;stroke-opacity:1;marker-end:url(#marker8456)"
     d="m 475.19574,204.78695 c -3.25119,-50.64115 -8.44748,-98.37133 5.3428,-98.66335"
     id="move5" />
  <g
     id="hand_clock">
    <path
       style="fill:none;stroke:#000000;stroke-width:2;stroke-linecap:butt;stroke-linejoin:miter;stroke-miterlimit:4;stroke-dasharray:none;stroke-opacity:1"
       d="m 81.004171,122.41366 -0.4575,50.38046"
       id="path7194" />
    <circle
       style="fill:none;stroke:#000000;stroke-width:2;stroke-miterlimit:4;stroke-dasharray:none;stroke-dashoffset:0;stroke-opacity:1"
       id="path7196"
       cx="80.546677"
       cy="176.15936"
       r="2.8655119" />
  </g>
  <path
     id="move1"
     d="m 585.31495,235.85667 c -17.40581,38.78137 -83.6433,39.77018 -90.19058,41.07964"
     style="opacity:0.4;fill:none;stroke:#000000;stroke-width:3;stroke-linecap:butt;stroke-linejoin:miter;stroke-miterlimit:4;stroke-dasharray:3, 9;stroke-dashoffset:0;stroke-opacity:1;marker-end:url(#marker22982)" />
  <path
     style="opacity:0.4;fill:none;stroke:#000000;stroke-width:3;stroke-linecap:butt;stroke-linejoin:miter;stroke-miterlimit:4;stroke-dasharray:6, 6;stroke-dashoffset:0;stroke-opacity:1;marker-end:url(#marker23118)"
     d="M 401.15973,286.429 227.94916,206.79781"
     id="ball3" />
  <path
     style="opacity:0.4;fill:none;stroke:#000000;stroke-width:3;stroke-linecap:butt;stroke-linejoin:miter;stroke-miterlimit:4;stroke-dasharray:6, 6;stroke-dashoffset:0;stroke-opacity:1;marker-end:url(#marker23598)"
     d="m 227.72275,206.30506 182.65724,39.609"
     id="ball4" />
  <path
     style="opacity:0.4;fill:none;stroke:#000000;stroke-width:3;stroke-linecap:butt;stroke-linejoin:miter;stroke-miterlimit:4;stroke-dasharray:none;stroke-dashoffset:0;stroke-opacity:1;marker-end:url(#marker23050)"
     d="m 331.99974,209.54611 66.27409,75.17881"
     id="move3" />
  <path
     id="move6"
     d="m 481.87001,105.46574 8.11263,33.67136 c 30.23115,4.27511 -79.38576,107.08232 -79.38576,107.08232"
     style="opacity:0.4;fill:none;stroke:#000000;stroke-width:3;stroke-linecap:butt;stroke-linejoin:miter;stroke-miterlimit:4;stroke-dasharray:none;stroke-dashoffset:0;stroke-opacity:1;marker-end:url(#marker23432)" />
  <path
     id="move4"
     d="m 398.34389,283.72214 c 4.15621,-50.64115 21.41363,-88.41763 57.88909,-147.27447"
     style="opacity:0.4;fill:none;stroke:#000000;stroke-width:3;stroke-linecap:butt;stroke-linejoin:miter;stroke-miterlimit:4;stroke-dasharray:none;stroke-dashoffset:0;stroke-opacity:1;marker-end:url(#StopM)" />
  <path
     id="move7"
     d="m 583.22036,107.07656 -86.02141,0.95885"
     style="opacity:0.4;fill:none;stroke:#000000;stroke-width:3;stroke-linecap:butt;stroke-linejoin:miter;stroke-miterlimit:4;stroke-dasharray:none;stroke-dashoffset:0;stroke-opacity:1" />
  <path
     id="move9"
     d="M 498.07678,107.99527 C 495.02314,73.489001 332.39702,106.75145 332.39702,106.75145"
     style="opacity:0.4;fill:none;stroke:#000000;stroke-width:3;stroke-linecap:butt;stroke-linejoin:miter;stroke-miterlimit:4;stroke-dasharray:none;stroke-dashoffset:0;stroke-opacity:1;marker-end:url(#marker23770)" />
  <path
     id="move2"
     d="m 494.56232,277.21176 c 7.02602,-51.02848 66.65672,-89.71747 80.11478,-108.52073"
     style="opacity:0.4;fill:none;stroke:#000000;stroke-width:3;stroke-linecap:butt;stroke-linejoin:miter;stroke-miterlimit:4;stroke-dasharray:none;stroke-dashoffset:0;stroke-opacity:1;marker-end:url(#marker23272)" />
  <path
     style="opacity:0.4;fill:none;stroke:#000000;stroke-width:3;stroke-linecap:butt;stroke-linejoin:miter;stroke-miterlimit:4;stroke-dasharray:none;stroke-dashoffset:0;stroke-opacity:1;marker-end:url(#marker27744)"
     d="m 497.9241,108.06446 c -3.05364,34.50626 -165.67976,1.24382 -165.67976,1.24382"
     id="move8" />
  <path
     style="opacity:0.4;fill:none;stroke:#000000;stroke-width:3;stroke-linecap:butt;stroke-linejoin:miter;stroke-miterlimit:4;stroke-dasharray:6, 6;stroke-dashoffset:0;stroke-opacity:1;marker-end:url(#marker33250)"
     d="m 495.82254,276.83336 -95.74162,9.61638"
     id="ball2" />
  <g
     transform="translate(3.3512858,-95.994752)"
     id="player1">
    <circle
       r="10.068069"
       cy="332.03375"
       cx="584.22473"
       id="circle29069"
       style="fill:#0078b6;fill-opacity:1;stroke:#000000;stroke-width:0.5;stroke-miterlimit:4;stroke-dasharray:none;stroke-dashoffset:0;stroke-opacity:1" />
    <text
       xml:space="preserve"
       style="font-style:normal;font-weight:normal;line-height:0%;font-family:sans-serif;letter-spacing:0px;word-spacing:0px;fill:#000000;fill-opacity:1;stroke:none;stroke-width:1px;stroke-linecap:butt;stroke-linejoin:miter;stroke-opacity:1"
       x="580.56238"
       y="336.12598"
       id="text33025"
       transform="scale(0.99997461,1.0000254)"><tspan
         x="580.56238"
         y="336.12598"
         id="tspan33029"
         style="font-size:11.2493px;line-height:1.25;fill:#ffffff;fill-opacity:1">1</tspan></text>
  </g>
  <g
     transform="translate(-0.98629056,-91.902699)"
     id="player2">
    <circle
       style="fill:#0078b6;fill-opacity:1;stroke:#000000;stroke-width:0.5;stroke-miterlimit:4;stroke-dasharray:none;stroke-dashoffset:0;stroke-opacity:1"
       id="path29063"
       cx="227.74899"
       cy="297.82794"
       r="10.068069" />
    <text
       transform="scale(0.99998661,1.0000134)"
       id="text33048"
       y="301.99844"
       x="224.32462"
       style="font-style:normal;font-weight:normal;line-height:0%;font-family:sans-serif;letter-spacing:0px;word-spacing:0px;fill:#000000;fill-opacity:1;stroke:none;stroke-width:1px;stroke-linecap:butt;stroke-linejoin:miter;stroke-opacity:1"
       xml:space="preserve"><tspan
         style="font-size:11.249px;line-height:1.25;fill:#ffffff;fill-opacity:1"
         id="tspan33050"
         y="301.99844"
         x="224.32462">2</tspan></text>
  </g>
  <g
     transform="translate(-0.98629056,-91.902699)"
     id="player5">
    <circle
       r="10.068069"
       cy="300.78586"
       cx="333.50607"
       id="circle29073"
       style="fill:#0078b6;fill-opacity:1;stroke:#000000;stroke-width:0.5;stroke-miterlimit:4;stroke-dasharray:none;stroke-dashoffset:0;stroke-opacity:1" />
    <text
       xml:space="preserve"
       style="font-style:normal;font-weight:normal;line-height:0%;font-family:sans-serif;letter-spacing:0px;word-spacing:0px;fill:#000000;fill-opacity:1;stroke:none;stroke-width:1px;stroke-linecap:butt;stroke-linejoin:miter;stroke-opacity:1"
       x="329.98572"
       y="304.80618"
       id="text33062"
       transform="scale(0.99999829)"><tspan
         x="329.98572"
         y="304.80618"
         id="tspan33064"
         style="font-size:11.2492px;line-height:1.25;fill:#ffffff;fill-opacity:1">5</tspan></text>
  </g>
  <g
     transform="translate(-0.98629056,-91.902699)"
     id="player3">
    <circle
       style="fill:#0078b6;fill-opacity:1;stroke:#000000;stroke-width:0.5;stroke-miterlimit:4;stroke-dasharray:none;stroke-dashoffset:0;stroke-opacity:1"
       id="circle29075"
       cx="584.04895"
       cy="198.55446"
       r="10.068069" />
    <text
       transform="scale(0.99992252,1.0000775)"
       id="text33066"
       y="202.63449"
       x="580.53766"
       style="font-style:normal;font-weight:normal;line-height:0%;font-family:sans-serif;letter-spacing:0px;word-spacing:0px;fill:#000000;fill-opacity:1;stroke:none;stroke-width:1px;stroke-linecap:butt;stroke-linejoin:miter;stroke-opacity:1"
       xml:space="preserve"><tspan
         style="font-size:11.2493px;line-height:1.25;fill:#ffffff;fill-opacity:1"
         y="202.63449"
         x="580.53766"
         id="tspan33092">3</tspan></text>
  </g>
  <g
     transform="translate(-0.98629056,-91.902699)"
     id="player4">
    <circle
       style="fill:#0078b6;fill-opacity:1;stroke:#000000;stroke-width:0.5;stroke-miterlimit:4;stroke-dasharray:none;stroke-dashoffset:0;stroke-opacity:1"
       id="circle29071"
       cx="476.03363"
       cy="296.25778"
       r="10.068069" />
    <text
       xml:space="preserve"
       style="font-style:normal;font-weight:normal;line-height:0%;font-family:sans-serif;letter-spacing:0px;word-spacing:0px;fill:#000000;fill-opacity:1;stroke:none;stroke-width:1px;stroke-linecap:butt;stroke-linejoin:miter;stroke-opacity:1"
       x="472.5105"
       y="300.34976"
       id="text33070"
       transform="scale(0.99997088,1.0000291)"><tspan
         x="472.5105"
         y="300.34976"
         id="tspan33072"
         style="font-size:11.2493px;line-height:1.25;fill:#ffffff;fill-opacity:1">4</tspan></text>
  </g>
  <g
     transform="matrix(0.02542068,0,0,0.02542067,581.82767,219.91546)"
     id="ball">
    <g
       id="g28974">
      <g
         id="g28976">
        <circle
           style="fill:#ff9100"
           cx="240"
           cy="240"
           r="240"
           id="circle28978" />
      </g>
      <g
         id="g28980">
        <path
           style="fill:#ff4f19"
           d="m 240,480 c 66.274,0 126.274,-26.862 169.706,-70.294 L 70.294,70.294 C 26.862,113.726 0,173.726 0,240 0,372.548 107.452,480 240,480 Z"
           id="path28982" />
      </g>
      <g
         id="g28984">
        <path
           style="fill:#74829c"
           d="m 328.203,248 151.594,0 c 0.088,-2.662 0.203,-5.317 0.203,-8 0,-2.683 -0.115,-5.338 -0.203,-8 l -151.594,0 C 330.442,166.377 360.065,107.596 405.961,66.724 402.096,63.021 398.13,59.425 394.025,55.985 345.596,99.739 314.429,162.267 312.203,232 l -63.984,0 0,-231.792 C 245.485,0.116 242.756,0 240,0 c -2.61,0 -5.192,0.114 -7.781,0.197 l 0,231.803 -56.422,0 C 173.513,160.446 140.762,96.475 90.15,52.595 c -4.219,3.378 -8.343,6.868 -12.323,10.519 48.277,40.98 79.664,101.29 81.971,168.887 l -159.595,0 C 0.115,234.662 0,237.317 0,240 c 0,2.683 0.115,5.338 0.203,8 l 159.595,0 c -2.307,67.597 -33.693,127.906 -81.971,168.887 3.979,3.65 8.104,7.14 12.323,10.519 50.613,-43.88 83.363,-107.852 85.647,-179.405 l 56.422,0 0,231.803 c 2.589,0.082 5.171,0.196 7.781,0.196 2.756,0 5.485,-0.116 8.219,-0.208 l 0,-231.792 63.984,0 c 2.226,69.733 33.393,132.261 81.822,176.015 4.104,-3.44 8.07,-7.036 11.936,-10.739 C 360.064,372.404 330.442,313.622 328.203,248 Z"
           id="path28986" />
      </g>
      <g
         id="g28988">
        <g
           id="g28990">
          <path
             style="fill:#5c546a"
             d="m 394.025,424.015 0.007,-0.006 c 4.099,-3.435 8.059,-7.025 11.918,-10.723 0.003,-0.003 0.007,-0.007 0.011,-0.01 -16.007,-14.254 -29.977,-30.727 -41.553,-48.868 l -35.923,-35.923 c 14.136,36.845 36.753,69.522 65.54,95.53 z"
             id="path28992" />
        </g>
        <g
           id="g28994">
          <path
             style="fill:#5c546a"
             d="M 248.219,248.219 232,232 l -56.203,0 c -0.756,-23.692 -4.917,-46.523 -11.896,-68.099 L 134.352,134.352 C 149.513,163.827 158.6,196.915 159.797,232 L 0.203,232 C 0.115,234.662 0,237.317 0,240 c 0,2.683 0.115,5.338 0.203,8 l 159.595,0 c -2.307,67.597 -33.693,127.906 -81.971,168.887 3.977,3.648 8.099,7.136 12.316,10.513 0,0 0.005,0.003 0.007,0.005 50.613,-43.88 83.363,-107.851 85.647,-179.405 l 56.422,0 0,231.803 c 2.589,0.083 5.171,0.197 7.781,0.197 2.756,0 5.485,-0.116 8.219,-0.208 l 0,-231.573 z"
             id="path28996" />
        </g>
      </g>
    </g>
    <g
       id="g28998" />
    <g
       id="g29000" />
    <g
       id="g29002" />
    <g
       id="g29004" />
    <g
       id="g29006" />
    <g
       id="g29008" />
    <g
       id="g29010" />
    <g
       id="g29012" />
    <g
       id="g29014" />
    <g
       id="g29016" />
    <g
       id="g29018" />
    <g
       id="g29020" />
    <g
       id="g29022" />
    <g
       id="g29024" />
    <g
       id="g29026" />
  </g>
</svg>
